<svg width="24" height="25" viewBox="0 0 24 25" fill="none" xmlns="http://www.w3.org/2000/svg">
<path d="M12 22.5C6.477 22.5 2 18.023 2 12.5C2 6.977 6.477 2.5 12 2.5C17.523 2.5 22 6.977 22 12.5C22 18.023 17.523 22.5 12 22.5ZM8.5 14.5V16.5H11V18.5H13V16.5H14C14.663 16.5 15.2989 16.2366 15.7678 15.7678C16.2366 15.2989 16.5 14.663 16.5 14C16.5 13.337 16.2366 12.7011 15.7678 12.2322C15.2989 11.7634 14.663 11.5 14 11.5H10C9.86739 11.5 9.74021 11.4473 9.64645 11.3536C9.55268 11.2598 9.5 11.1326 9.5 11C9.5 10.8674 9.55268 10.7402 9.64645 10.6464C9.74021 10.5527 9.86739 10.5 10 10.5H15.5V8.5H13V6.5H11V8.5H10C9.33696 8.5 8.70107 8.76339 8.23223 9.23223C7.76339 9.70107 7.5 10.337 7.5 11C7.5 11.663 7.76339 12.2989 8.23223 12.7678C8.70107 13.2366 9.33696 13.5 10 13.5H14C14.1326 13.5 14.2598 13.5527 14.3536 13.6464C14.4473 13.7402 14.5 13.8674 14.5 14C14.5 14.1326 14.4473 14.2598 14.3536 14.3536C14.2598 14.4473 14.1326 14.5 14 14.5H8.5Z" fill="#717171"/>
</svg>
