<svg width="16" height="16" viewBox="0 0 16 16" fill="none" xmlns="http://www.w3.org/2000/svg">
<g clip-path="url(#clip0_85_17238)">
<path d="M8.74648 11.3495L5.94714 9.82279C5.58168 10.2135 5.10713 10.4852 4.58519 10.6027C4.06325 10.7202 3.51804 10.6779 3.02043 10.4815C2.52281 10.285 2.09579 9.94342 1.79486 9.50108C1.49393 9.05874 1.33301 8.53612 1.33301 8.00112C1.33301 7.46612 1.49393 6.9435 1.79486 6.50116C2.09579 6.05882 2.52281 5.71722 3.02043 5.52076C3.51804 5.3243 4.06325 5.28206 4.58519 5.39953C5.10713 5.517 5.58168 5.78874 5.94714 6.17945L8.74715 4.65279C8.58818 4.0235 8.66418 3.35785 8.9609 2.78059C9.25762 2.20333 9.75468 1.75411 10.3589 1.51712C10.9632 1.28013 11.6331 1.27166 12.2431 1.49328C12.8532 1.7149 13.3615 2.1514 13.6727 2.72096C13.9839 3.29052 14.0767 3.95405 13.9337 4.58715C13.7908 5.22026 13.4218 5.77948 12.896 6.15999C12.3702 6.54051 11.7236 6.71619 11.0775 6.65412C10.4315 6.59204 9.83021 6.29646 9.38648 5.82279L6.58648 7.34945C6.69395 7.77703 6.69395 8.22455 6.58648 8.65212L9.38581 10.1788C9.82955 9.70511 10.4308 9.40954 11.0769 9.34746C11.723 9.28538 12.3695 9.46106 12.8953 9.84158C13.4211 10.2221 13.7901 10.7813 13.9331 11.4144C14.0761 12.0475 13.9832 12.7111 13.672 13.2806C13.3608 13.8502 12.8525 14.2867 12.2425 14.5083C11.6324 14.7299 10.9625 14.7214 10.3583 14.4845C9.75402 14.2475 9.25695 13.7982 8.96023 13.221C8.66352 12.6437 8.58751 11.9781 8.74648 11.3488V11.3495ZM3.99981 9.33412C4.35343 9.33412 4.69257 9.19364 4.94262 8.9436C5.19267 8.69355 5.33315 8.35441 5.33315 8.00079C5.33315 7.64716 5.19267 7.30803 4.94262 7.05798C4.69257 6.80793 4.35343 6.66745 3.99981 6.66745C3.64619 6.66745 3.30705 6.80793 3.057 7.05798C2.80695 7.30803 2.66648 7.64716 2.66648 8.00079C2.66648 8.35441 2.80695 8.69355 3.057 8.9436C3.30705 9.19364 3.64619 9.33412 3.99981 9.33412ZM11.3331 5.33412C11.6868 5.33412 12.0259 5.19364 12.276 4.9436C12.526 4.69355 12.6665 4.35441 12.6665 4.00079C12.6665 3.64716 12.526 3.30803 12.276 3.05798C12.0259 2.80793 11.6868 2.66745 11.3331 2.66745C10.9795 2.66745 10.6404 2.80793 10.3903 3.05798C10.1403 3.30803 9.99981 3.64716 9.99981 4.00079C9.99981 4.35441 10.1403 4.69355 10.3903 4.9436C10.6404 5.19364 10.9795 5.33412 11.3331 5.33412ZM11.3331 13.3341C11.6868 13.3341 12.0259 13.1936 12.276 12.9436C12.526 12.6935 12.6665 12.3544 12.6665 12.0008C12.6665 11.6472 12.526 11.308 12.276 11.058C12.0259 10.8079 11.6868 10.6675 11.3331 10.6675C10.9795 10.6675 10.6404 10.8079 10.3903 11.058C10.1403 11.308 9.99981 11.6472 9.99981 12.0008C9.99981 12.3544 10.1403 12.6935 10.3903 12.9436C10.6404 13.1936 10.9795 13.3341 11.3331 13.3341Z" fill="#222222"/>
</g>
<defs>
<clipPath id="clip0_85_17238">
<rect width="16" height="16" fill="white"/>
</clipPath>
</defs>
</svg>
