<svg width="24" height="25" viewBox="0 0 24 25" fill="none" xmlns="http://www.w3.org/2000/svg">
<path d="M21.9999 4.05019V7.50019C21.9999 7.76541 21.8946 8.01976 21.707 8.2073C21.5195 8.39484 21.2652 8.50019 20.9999 8.50019H17.4999C17.355 8.50183 17.2114 8.47194 17.0791 8.41258C16.9469 8.35323 16.8291 8.26583 16.734 8.15644C16.6389 8.04705 16.5687 7.91828 16.5283 7.77907C16.4878 7.63985 16.4782 7.49351 16.4999 7.35019C16.547 7.10761 16.678 6.88938 16.8701 6.73391C17.0621 6.57844 17.3029 6.49568 17.5499 6.50019H18.6999C17.5352 5.20308 16.0188 4.27216 14.335 3.82055C12.6512 3.36894 10.8724 3.41607 9.21492 3.95622C7.55739 4.49638 6.09242 5.50629 4.998 6.86327C3.90357 8.22025 3.22681 9.86587 3.04994 11.6002C3.02506 11.8477 2.90882 12.0771 2.72391 12.2435C2.539 12.4099 2.2987 12.5014 2.04994 12.5002C1.90976 12.5009 1.771 12.4721 1.64266 12.4157C1.51432 12.3593 1.39928 12.2766 1.30498 12.1729C1.21069 12.0692 1.13925 11.9468 1.09532 11.8137C1.05138 11.6805 1.03592 11.5397 1.04994 11.4002C1.25995 9.30075 2.06934 7.30601 3.38158 5.6538C4.69381 4.00159 6.45354 2.76164 8.45093 2.08179C10.4483 1.40194 12.5991 1.31088 14.6468 1.81946C16.6945 2.32805 18.5527 3.41482 19.9999 4.95019V4.00019C19.9983 3.85524 20.0282 3.71166 20.0875 3.57941C20.1469 3.44715 20.2343 3.32939 20.3437 3.23426C20.4531 3.13914 20.5818 3.06894 20.7211 3.02852C20.8603 2.98811 21.0066 2.97844 21.1499 3.00019C21.3925 3.04722 21.6107 3.17829 21.7662 3.37034C21.9217 3.5624 22.0044 3.80314 21.9999 4.05019Z" fill="#676767"/>
<path d="M2.00018 20.95V17.5C2.00018 17.2348 2.10553 16.9804 2.29307 16.7929C2.48061 16.6054 2.73496 16.5 3.00018 16.5H6.50018C6.64513 16.4984 6.78871 16.5283 6.92096 16.5876C7.05322 16.647 7.17098 16.7344 7.2661 16.8438C7.36123 16.9532 7.43143 17.0819 7.47185 17.2211C7.51226 17.3604 7.52193 17.5067 7.50018 17.65C7.45315 17.8926 7.32208 18.1108 7.13002 18.2663C6.93797 18.4218 6.69723 18.5045 6.45018 18.5H5.30018C6.46493 19.7971 7.98133 20.728 9.66514 21.1797C11.3489 21.6313 13.1277 21.5841 14.7852 21.044C16.4427 20.5038 17.9077 19.4939 19.0021 18.1369C20.0965 16.78 20.7733 15.1343 20.9502 13.4C20.975 13.1525 21.0913 12.9231 21.2762 12.7567C21.4611 12.5903 21.7014 12.4988 21.9502 12.5C22.0904 12.4993 22.2291 12.5281 22.3574 12.5845C22.4858 12.6409 22.6008 12.7236 22.6951 12.8273C22.7894 12.9311 22.8609 13.0534 22.9048 13.1866C22.9487 13.3197 22.9642 13.4605 22.9502 13.6C22.7402 15.6995 21.9308 17.6942 20.6185 19.3464C19.3063 20.9986 17.5466 22.2386 15.5492 22.9184C13.5518 23.5983 11.401 23.6893 9.35332 23.1807C7.30561 22.6722 5.44737 21.5854 4.00018 20.05V21C4.00182 21.145 3.97192 21.2885 3.91257 21.4208C3.85321 21.5531 3.76581 21.6708 3.65642 21.7659C3.54703 21.8611 3.41827 21.9313 3.27905 21.9717C3.13984 22.0121 2.9935 22.0218 2.85018 22C2.60759 21.953 2.38937 21.8219 2.23389 21.6299C2.07842 21.4378 1.99566 21.1971 2.00018 20.95Z" fill="#676767"/>
<path d="M12.3504 11.5C10.6004 11.15 10.6004 10.85 10.6004 10.6C10.6004 10.35 10.7004 10.3 10.8504 10.15C11.1262 10.0017 11.4377 9.93249 11.7504 9.95C12.3313 9.94496 12.9024 10.1007 13.4004 10.4C13.5016 10.4826 13.6196 10.5422 13.7461 10.5746C13.8727 10.607 14.0048 10.6115 14.1333 10.5877C14.2617 10.5639 14.3835 10.5124 14.49 10.4368C14.5966 10.3612 14.6854 10.2634 14.7504 10.15C14.8361 10.0478 14.8993 9.92861 14.9359 9.80031C14.9725 9.67201 14.9816 9.53745 14.9628 9.40537C14.9439 9.2733 14.8974 9.14668 14.8264 9.03376C14.7553 8.92084 14.6613 8.82416 14.5504 8.75C14.0749 8.45653 13.5495 8.25314 13.0004 8.15V7C13.0004 6.73478 12.895 6.48043 12.7075 6.29289C12.5199 6.10536 12.2656 6 12.0004 6C11.7352 6 11.4808 6.10536 11.2933 6.29289C11.1057 6.48043 11.0004 6.73478 11.0004 7V8.1C9.50037 8.35 8.50037 9.35 8.50037 10.7C8.50037 12.05 10.1504 13.15 11.7504 13.45C13.3504 13.75 13.4004 14.1 13.4004 14.35C13.4004 14.6 12.8504 15.05 12.1504 15.05C11.4142 15.0645 10.6937 14.8361 10.1004 14.4C9.98926 14.3261 9.8645 14.2752 9.73342 14.2503C9.60234 14.2254 9.4676 14.227 9.33714 14.2549C9.20667 14.2829 9.08312 14.3366 8.97376 14.4131C8.8644 14.4895 8.77145 14.5871 8.70037 14.7C8.62153 14.7938 8.56266 14.9027 8.52738 15.02C8.4921 15.1373 8.48115 15.2606 8.49519 15.3823C8.50923 15.504 8.54798 15.6216 8.60905 15.7278C8.67013 15.834 8.75224 15.9266 8.85037 16C9.49375 16.4515 10.2272 16.7585 11.0004 16.9V18C11.0004 18.2652 11.1057 18.5196 11.2933 18.7071C11.4808 18.8946 11.7352 19 12.0004 19C12.2656 19 12.5199 18.8946 12.7075 18.7071C12.895 18.5196 13.0004 18.2652 13.0004 18V16.9C13.5489 16.8191 14.0663 16.5949 14.5004 16.25C14.8138 16.0199 15.068 15.7185 15.2418 15.3707C15.4157 15.023 15.5043 14.6388 15.5004 14.25C15.5004 12.4 13.8004 11.8 12.3504 11.5Z" fill="#676767"/>
</svg>
