<svg width="24" height="25" viewBox="0 0 24 25" fill="none" xmlns="http://www.w3.org/2000/svg">
<g clip-path="url(#clip0_85_25150)">
<path d="M12 11.5C13.3261 11.5 14.5979 12.0268 15.5355 12.9645C16.4732 13.9021 17 15.1739 17 16.5V22.5H15V16.5C15 15.7348 14.7077 14.9985 14.1827 14.4417C13.6578 13.885 12.9399 13.5499 12.176 13.505L12 13.5C11.2348 13.5 10.4985 13.7923 9.94174 14.3173C9.38499 14.8422 9.04989 15.5601 9.005 16.324L9 16.5V22.5H7V16.5C7 15.1739 7.52678 13.9021 8.46447 12.9645C9.40215 12.0268 10.6739 11.5 12 11.5ZM5.5 14.5C5.779 14.5 6.05 14.533 6.31 14.594C6.13902 15.103 6.03777 15.6328 6.009 16.169L6 16.5V16.586C5.88505 16.5449 5.76549 16.518 5.644 16.506L5.5 16.5C5.12712 16.5 4.76761 16.6389 4.49158 16.8896C4.21555 17.1403 4.0428 17.4848 4.007 17.856L4 18V22.5H2V18C2 17.0717 2.36875 16.1815 3.02513 15.5251C3.6815 14.8687 4.57174 14.5 5.5 14.5ZM18.5 14.5C19.4283 14.5 20.3185 14.8687 20.9749 15.5251C21.6313 16.1815 22 17.0717 22 18V22.5H20V18C20 17.6271 19.8611 17.2676 19.6104 16.9916C19.3597 16.7156 19.0152 16.5428 18.644 16.507L18.5 16.5C18.325 16.5 18.157 16.53 18 16.585V16.5C18 15.834 17.892 15.194 17.691 14.596C17.95 14.533 18.221 14.5 18.5 14.5ZM5.5 8.5C6.16304 8.5 6.79893 8.76339 7.26777 9.23223C7.73661 9.70107 8 10.337 8 11C8 11.663 7.73661 12.2989 7.26777 12.7678C6.79893 13.2366 6.16304 13.5 5.5 13.5C4.83696 13.5 4.20107 13.2366 3.73223 12.7678C3.26339 12.2989 3 11.663 3 11C3 10.337 3.26339 9.70107 3.73223 9.23223C4.20107 8.76339 4.83696 8.5 5.5 8.5ZM18.5 8.5C19.163 8.5 19.7989 8.76339 20.2678 9.23223C20.7366 9.70107 21 10.337 21 11C21 11.663 20.7366 12.2989 20.2678 12.7678C19.7989 13.2366 19.163 13.5 18.5 13.5C17.837 13.5 17.2011 13.2366 16.7322 12.7678C16.2634 12.2989 16 11.663 16 11C16 10.337 16.2634 9.70107 16.7322 9.23223C17.2011 8.76339 17.837 8.5 18.5 8.5ZM5.5 10.5C5.36739 10.5 5.24021 10.5527 5.14645 10.6464C5.05268 10.7402 5 10.8674 5 11C5 11.1326 5.05268 11.2598 5.14645 11.3536C5.24021 11.4473 5.36739 11.5 5.5 11.5C5.63261 11.5 5.75979 11.4473 5.85355 11.3536C5.94732 11.2598 6 11.1326 6 11C6 10.8674 5.94732 10.7402 5.85355 10.6464C5.75979 10.5527 5.63261 10.5 5.5 10.5ZM18.5 10.5C18.3674 10.5 18.2402 10.5527 18.1464 10.6464C18.0527 10.7402 18 10.8674 18 11C18 11.1326 18.0527 11.2598 18.1464 11.3536C18.2402 11.4473 18.3674 11.5 18.5 11.5C18.6326 11.5 18.7598 11.4473 18.8536 11.3536C18.9473 11.2598 19 11.1326 19 11C19 10.8674 18.9473 10.7402 18.8536 10.6464C18.7598 10.5527 18.6326 10.5 18.5 10.5ZM12 2.5C13.0609 2.5 14.0783 2.92143 14.8284 3.67157C15.5786 4.42172 16 5.43913 16 6.5C16 7.56087 15.5786 8.57828 14.8284 9.32843C14.0783 10.0786 13.0609 10.5 12 10.5C10.9391 10.5 9.92172 10.0786 9.17157 9.32843C8.42143 8.57828 8 7.56087 8 6.5C8 5.43913 8.42143 4.42172 9.17157 3.67157C9.92172 2.92143 10.9391 2.5 12 2.5ZM12 4.5C11.4696 4.5 10.9609 4.71071 10.5858 5.08579C10.2107 5.46086 10 5.96957 10 6.5C10 7.03043 10.2107 7.53914 10.5858 7.91421C10.9609 8.28929 11.4696 8.5 12 8.5C12.5304 8.5 13.0391 8.28929 13.4142 7.91421C13.7893 7.53914 14 7.03043 14 6.5C14 5.96957 13.7893 5.46086 13.4142 5.08579C13.0391 4.71071 12.5304 4.5 12 4.5Z" fill="#717171"/>
</g>
<defs>
<clipPath id="clip0_85_25150">
<rect width="24" height="24" fill="white" transform="translate(0 0.5)"/>
</clipPath>
</defs>
</svg>
