<svg width="24" height="21" viewBox="0 0 24 21" fill="none" xmlns="http://www.w3.org/2000/svg">
<path d="M12 2C9.337 2 6.677 1.811 4.04 1.434L1 1H0.5V20H1L4.04 19.566C6.6766 19.1892 9.33662 19.0001 12 19M12 2C14.663 2 17.323 1.811 19.96 1.434L23 1H23.5V20H23L19.96 19.566C17.3234 19.1892 14.6634 19.0001 12 19M12 2V7.5M12 19V13.5M12 7.5C12.7956 7.5 13.5587 7.81607 14.1213 8.37868C14.6839 8.94129 15 9.70435 15 10.5C15 11.2956 14.6839 12.0587 14.1213 12.6213C13.5587 13.1839 12.7956 13.5 12 13.5M12 7.5C11.2044 7.5 10.4413 7.81607 9.87868 8.37868C9.31607 8.94129 9 9.70435 9 10.5C9 11.2956 9.31607 12.0587 9.87868 12.6213C10.4413 13.1839 11.2044 13.5 12 13.5M0.5 6H1C2.19347 6 3.33807 6.47411 4.18198 7.31802C5.02589 8.16193 5.5 9.30653 5.5 10.5C5.5 11.6935 5.02589 12.8381 4.18198 13.682C3.33807 14.5259 2.19347 15 1 15H0.5M23.5 15H23C21.8065 15 20.6619 14.5259 19.818 13.682C18.9741 12.8381 18.5 11.6935 18.5 10.5C18.5 9.30653 18.9741 8.16193 19.818 7.31802C20.6619 6.47411 21.8065 6 23 6H23.5" stroke="#676767" stroke-width="2"/>
</svg>
